# xmcd
#
# Track frame offsets:
# 150
# 13469
# 24684
# 37128
# 47197
# 61153
# 73627
# 85226
# 95626
# 108009
#
# Disc length: 1621 seconds
#
# Revision: 0
# Processed by: cddbd v1.5.1PL0 Copyright (c) Steve Scherf et al.
# Submitted via: Axialis_AX_CDPlayer 2.6
#
DISCID=8706530a
DTITLE=Hank Williams - Hank Williams - Favorites - Disk 1: Cold Cold Heart
DYEAR=1900
DGENRE=
TTITLE0=Hey Good Lookin'
TTITLE1=I Heard That Lonesome Whistle
TTITLE2=Cold Cold Heart
TTITLE3=Honky Tonk Blues
TTITLE4=Ramblin' Man
TTITLE5=(Last Night) I Heard You  Crying In Your Sleep
TTITLE6=Kaw-Liga
TTITLE7=Please Don't Let Me Love You
TTITLE8=Half As Much
TTITLE9=A Mansion On The Hill (Live)
EXTD=
EXTT0=
EXTT1=
EXTT2=
EXTT3=
EXTT4=
EXTT5=
EXTT6=
EXTT7=
EXTT8=
EXTT9=
PLAYORDER=
